# xmcd CD database file
#
# Track frame offsets:
#	150
#	17596
#	36160
#	57136
#	82915
#	100045
#	125037
#	149003
#	169252
#	202148
#	224223
#	246205
#	267265
#	284424
#	308408
#	334926
#
# Disc length: 4788 seconds
#
# Revision: 0
# Processed by: cddbd v1.4PL0 Copyright (c) Steve Scherf et al.
# Submitted via: CDex 1.50Beta6
#
DISCID=f512b210
DTITLE=Music Cafe - Blues Collection
DYEAR=2002
DGENRE=Blues
TTITLE0=Oscar Benton-Bensonhurst Blues
TTITLE1=Gary Moore-Still Got The Blues For You
TTITLE2=Joe Cockr-My Father's Son
TTITLE3=Jeff Healey Band-It Could All Get Blown Away
TTITLE4=Robert Cray-Who's Been Talking
TTITLE5=John Lee Hooker-I'm In The Mood
TTITLE6=Etta James-I'd Rather Go Blind
TTITLE7=B.B.King-Sweet Sixteen
TTITLE8=Tony Joe White-The Guitar Don't Lie
TTITLE9=Dire Straits-Fade To Black
TTITLE10=Junior Wells-Why Are People Like That
TTITLE11=Little Blue-Gold Rain
TTITLE12=Lucky Peterson-Who Been Talking
TTITLE13=Michel Burks-Got a Way With Women
TTITLE14=Muskee-Bother Booze
TTITLE15=Joe Cocker-N'Oubliez Jamais (Videoclip)
EXTD=YEAR: 2002
EXTT0=
EXTT1=
EXTT2=
EXTT3=
EXTT4=
EXTT5=
EXTT6=
EXTT7=
EXTT8=
EXTT9=
EXTT10=
EXTT11=
EXTT12=
EXTT13=
EXTT14=
EXTT15=
PLAYORDER=
